# xmcd CD database file
#
# Track frame offsets:
#	150
#	14783
#	34406
#	49890
#	67963
#	86337
#	102847
#	121407
#	132992
#	146606
#	160132
#	176321
#
# Disc length: 2606 seconds
#
# Revision: 0
# Processed by: cddbd v1.5.1PL0 Copyright (c) Steve Scherf et al.
# Submitted via: CDex 1.51
#
DISCID=a20a2c0c
DTITLE=pilot - debut
DYEAR=2004
DGENRE=New Age
TTITLE0=die gelegenheit
TTITLE1=augenblick
TTITLE2=nicht zu spät
TTITLE3=was es ist
TTITLE4=ohne dich (abschied II)
TTITLE5=saint derrick
TTITLE6=ich für dich
TTITLE7=viel zu schön
TTITLE8=alles ist wie du
TTITLE9=es ist wahr
TTITLE10=abschied
TTITLE11=psychedella
EXTD=YEAR: 2004
EXTT0=
EXTT1=
EXTT2=
EXTT3=
EXTT4=
EXTT5=
EXTT6=
EXTT7=
EXTT8=
EXTT9=
EXTT10=
EXTT11=
PLAYORDER=
